# AST/ASF file generated using VICON BodyLanguage
# -----------------------------------------------
:version 1.10
:name VICON
:units
  mass 1.0
  length 0.45
  angle deg
:documentation
   .ast/.asf automatically generated from VICON data using
   VICON BodyBuilder and BodyLanguage model FoxedUp or BRILLIANT.MOD
:root
   order TX TY TZ RX RY RZ
   axis XYZ
   position 0 0 0  
   orientation 0 0 0 
:bonedata
  begin
     id 1 
     name lhipjoint
     direction 0.627457 -0.725269 0.283342 
     length 2.53237 
     axis 0 0 0  XYZ
  end
  begin
     id 2 
     name lfemur
     direction 0.34202 -0.939693 0  
     length 7.32496  
     axis 0 0 20  XYZ
    dof rx ry rz
    limits (-160.0 20.0)
           (-70.0 70.0)
           (-60.0 70.0)
  end
  begin
     id 3 
     name ltibia
     direction 0.34202 -0.939693 0   
     length 7.69674   
     axis 0 0 20   XYZ
    dof rx
    limits (-10.0 170.0)
  end
  begin
     id 4 
     name lfoot
     direction 0.127289 -0.349722 0.928166   
     length 1.8612   
     axis -90 7.62852e-016 20   XYZ
    dof rx rz
    limits (-45.0 90.0)
           (-70.0 20.0)
  end
  begin
     id 5 
     name ltoes
     direction 1.53561e-011 -4.21864e-011 1   
     length 0.925608   
     axis -90 7.62852e-016 20   XYZ
    dof rx
    limits (-90.0 20.0)
  end
  begin
     id 6 
     name rhipjoint
     direction -0.609094 -0.738725 0.288599   
     length 2.48624  
     axis 0 0 0  XYZ 
  end
  begin
     id 7 
     name rfemur
     direction -0.34202 -0.939693 0   
     length 7.44259   
     axis 0 0 -20   XYZ
    dof rx ry rz
    limits (-160.0 20.0)
           (-70.0 70.0)
           (-70.0 60.0)
  end
  begin
     id 8 
     name rtibia
     direction -0.34202 -0.939693 0   
     length 7.7781   
     axis 0 0 -20   XYZ
    dof rx
    limits (-10.0 170.0)
 end
 begin
     id 9 
     name rfoot
     direction -0.107015 -0.294021 0.949789   
     length 2.14741  
     axis -90 -7.62852e-016 -20   XYZ
    dof rx rz
    limits (-45.0 90.0)
           (-20.0 70.0)
  end
  begin
     id 10 
     name rtoes
     direction -1.53497e-011 -4.21924e-011 1   
     length 1.0706   
     axis -90 -7.62852e-016 -20   XYZ
    dof rx
    limits (-90.0 20.0)
  end
  begin
     id 11 
     name lowerback
     direction -0.0142066 0.998112 -0.0597545   
     length 1.86627   
     axis 0 0 0   XYZ
    dof rx ry rz
    limits (-20.0 45.0)
           (-30.0 30.0)
           (-30.0 30.0)
  end
  begin
     id 12 
     name upperback
     direction 0.00547294 0.999744 0.0219437   
     length 1.86272   
     axis 0 0 0   XYZ
    dof rx ry rz
    limits (-20.0 45.0)
           (-30.0 30.0)
           (-30.0 30.0)
  end
  begin
     id 13 
     name thorax
     direction 0.0116162 0.998704 0.0495538   
     length 1.8703   
     axis 0 0 0   XYZ
    dof rx ry rz
    limits (-20.0 45.0)
           (-30.0 30.0)
           (-30.0 30.0)
  end
  begin
     id 14 
     name lowerneck
     direction -0.0106574 0.998739 0.0490586   
     length 1.8074   
     axis 0 0 0   XYZ
    dof rx ry rz
    limits (-20.0 45.0)
           (-30.0 30.0)
           (-30.0 30.0)
  end
  begin
     id 15 
     name upperneck
     direction 0.030527 0.976587 -0.212944   
     length 1.80681   
     axis 0 0 0   XYZ
    dof rx ry rz
    limits (-20.0 45.0)
           (-30.0 30.0)
           (-30.0 30.0)
  end
  begin
     id 16
     name head
     direction 0.00869225 0.997035 -0.0764531  
     length 1.8313  
     axis 0 0 0   XYZ
    dof rx ry rz
    limits (-20.0 45.0)
           (-30.0 30.0)
           (-30.0 30.0)
  end
  begin
     id 17 
     name lclavicle
     direction 0.915958 0.399447 0.0382386  
     length 3.78965  
     axis 0 0 0   XYZ
    dof ry rz
    limits (-20.0 10.0)
           (0.0 20.0)
  end
  begin
     id 18 
     name lhumerus
     direction 1 -4.48967e-011 3.19303e-027   
     length 4.78095   
     axis -180 -30 -90   XYZ
    dof rx ry rz
    limits (-60.0 90.0)
           (-90.0 90.0)
           (-90.0 90.0)
  end
  begin
     id 19
     name lradius
     direction 1 -4.48967e-011 -3.77974e-027   
     length 3.58615   
     axis -180 -30 -90   XYZ
    dof rx
    limits (-10.0 170.0)
  end
  begin
     id 20
     name lwrist
     direction 1 -4.48927e-011 1.2807e-027   
     length 1.79307   
     axis 1.91374e-015 90 90   XYZ
    dof ry
    limits (-180.0 0.0)
 end
  begin
     id 21 
     name lhand
     direction 1 -4.49036e-011 2.5614e-027   
     length 0.659812   
     axis -1.63439e-015 90 90   XYZ
    dof rx rz
    limits (-90.0 90.0)
           (-45.0 45.0)
  end
  begin
     id 22 
     name lfingers
     direction 1 -4.49052e-011 5.1228e-027   
     length 0.531957   
     axis -3.26879e-015 90 90   XYZ
    dof rx
    limits (0.0 90.0)
  end
  begin
     id 23
     name lthumb
     direction 0.707107 -6.35012e-011 0.707107   
     length 0.763787   
     axis -90 45 2.85299e-015   XYZ
    dof rx rz
    limits (-45.0 45.0)
           (-45.0 45.0)
  end
  begin
     id 24 
     name rclavicle
     direction -0.895351 0.435135 0.0948887   
     length 3.70497  
     axis 0 0 0   XYZ 
    dof ry rz
    limits (-10.0 20.0)
           (-20.0 0.0)
  end
  begin
     id 25 
     name rhumerus
     direction -1 -4.48971e-011 2.38946e-027  
     length 4.48913   
     axis -180 30 90   XYZ
    dof rx ry rz
    limits (-90.0 60.0)
           (-90.0 90.0)
           (-90.0 90.0)
  end
  begin
     id 26 
     name rradius
     direction -1 -4.4895e-011 4.38668e-027   
     length 3.7051   
     axis -180 30 90   XYZ
    dof rx
    limits (-10.0 170.0)
  end
  begin
     id 27 
     name rwrist
     direction -1 -4.49007e-011 1.2807e-027   
     length 1.85255   
     axis 1.91374e-015 -90 -90   XYZ
    dof ry
    limits (-180.0 0.0)
  end
  begin
     id 28
     name rhand
     direction -1 -4.48851e-011 2.5614e-027   
     length 0.449136   
     axis -1.63439e-015 -90 -90   XYZ
    dof rx rz
    limits (-90.0 90.0)
           (-45.0 45.0)
  end
  begin
     id 29
     name rfingers
     direction -1 -4.49128e-011 5.1228e-027   
     length 0.362105   
     axis -3.26879e-015 -90 -90   XYZ
    dof rx
    limits (0.0 90.0)
  end
  begin
     id 30
     name rthumb
     direction -0.707107 -6.34851e-011 0.707107   
     length 0.519912   
     axis -90 -45 -2.85299e-015   XYZ
    dof rx rz
    limits (-45.0 45.0)
           (-45.0 45.0)
  end
:hierarchy
  begin
    root lhipjoint rhipjoint lowerback
    lhipjoint lfemur
    lfemur ltibia
    ltibia lfoot
    lfoot ltoes
    rhipjoint rfemur
    rfemur rtibia
    rtibia rfoot
    rfoot rtoes
    lowerback upperback
    upperback thorax
    thorax lowerneck lclavicle rclavicle
    lowerneck upperneck
    upperneck head
    lclavicle lhumerus
    lhumerus lradius
    lradius lwrist
    lwrist lhand lthumb
    lhand lfingers
    rclavicle rhumerus
    rhumerus rradius
    rradius rwrist
    rwrist rhand rthumb
    rhand rfingers
  end

#!OML:ASF I:\Actors\actors\Patient Classification 2\Patient 1\Session 1\actor1.ASF
:FULLY-SPECIFIED
:DEGREES
80
root -0.715655 18.6295 5.98951 -0.452003 0.166971 -2.75534
lowerback 8.4797 0.190347 1.82193
upperback -1.82763 0.473302 0.299229
thorax -6.66866 0.166512 -0.778286
lowerneck -14.786 -0.802453 0.24526
upperneck 23.5516 -1.78078 2.2754
head 9.94585 -0.537398 0.527211
rclavicle -1.3154e-015 -1.0138e-014
rhumerus -45.9341 -2.80533 -87.8096
rradius 39.1754
rwrist 11.5332
rhand -4.29284 -37.4071
rfingers 7.12502
rthumb 21.4727 -66.237
lclavicle -1.3154e-015 -1.0138e-014
lhumerus -42.1729 5.78147 88.0247
lradius 36.8949
lwrist -0.504111
lhand -4.3891 -19.6122
lfingers 7.12502
lthumb 21.3803 9.22823
rfemur 10.1466 1.39887 17.1992
rtibia -3.02153e-014
rfoot -19.7002 -13.3251
rtoes -3.82861
lfemur -3.83522 -4.78434 -11.187
ltibia 23.3894
lfoot -21.0576 8.61118
ltoes -55.8485
81
root -0.714586 18.6304 5.98851 -0.434909 0.179601 -2.73914
lowerback 8.47302 0.189975 1.84465
upperback -1.82141 0.475469 0.30571
thorax -6.6581 0.166952 -0.784514
lowerneck -14.7494 -0.802798 0.34727
upperneck 23.4984 -1.77667 2.16226
head 9.91772 -0.540371 0.470866
rclavicle -1.09021e-015 -7.7526e-015
rhumerus -45.9077 -2.80816 -87.781
rradius 39.19
rwrist 11.5369
rhand -4.24176 -37.4083
rfingers 7.12502
rthumb 21.5218 -66.2326
lclavicle -1.09021e-015 -7.7526e-015
lhumerus -42.135 5.85195 88.0104
lradius 36.8611
lwrist -0.691767
lhand -4.21149 -19.6103
lfingers 7.12502
lthumb 21.5509 9.21064
rfemur 10.1275 1.38625 17.1754
rtibia 1.90833e-014
rfoot -19.7121 -13.3173
rtoes -3.69558
lfemur -3.86258 -4.77155 -11.2073
ltibia 23.3941
lfoot -21.0626 8.61908
ltoes -55.8881
82
root -0.714075 18.6304 5.98733 -0.448851 0.199774 -2.74174
lowerback 8.5013 0.176342 1.87225
upperback -1.81438 0.461435 0.314614
thorax -6.66714 0.159115 -0.788896
lowerneck -14.7845 -0.780468 0.358063
upperneck 23.5341 -1.74917 2.16135
head 9.93677 -0.526109 0.47224
rclavicle -3.59987e-015 3.57812e-015
rhumerus -45.8936 -2.82844 -87.7673
rradius 39.1856
rwrist 11.6176
rhand -4.23048 -37.3039
rfingers 7.12502
rthumb 21.5326 -66.127
lclavicle -3.59987e-015 3.57812e-015
lhumerus -42.1093 5.93935 87.9858
lradius 36.8039
lwrist -0.748833
lhand -4.1814 -19.6569
lfingers 7.12502
lthumb 21.5798 9.16074
rfemur 10.1427 1.36717 17.1739
rtibia 3.18055e-014
rfoot -19.7269 -13.2839
rtoes -3.46531
lfemur -3.86163 -4.74151 -11.2031
ltibia 23.4008
lfoot -21.0474 8.59583
ltoes -55.9066
83
root -0.714303 18.63 5.98578 -0.455431 0.222048 -2.7502
lowerback 8.51387 0.168685 1.9105
upperback -1.80941 0.455496 0.312406
thorax -6.66899 0.154649 -0.811954
lowerneck -14.7935 -0.780749 0.338535
upperneck 23.542 -1.75639 2.20626
head 9.94208 -0.525803 0.490337
rclavicle -9.81499e-015 3.18055e-015
rhumerus -45.8825 -2.86494 -87.7709
rradius 39.1827
rwrist 11.6804
rhand -4.26749 -37.1139
rfingers 7.12502
rthumb 21.4971 -65.941
lclavicle -9.81499e-015 3.18055e-015
lhumerus -42.1011 5.94412 87.971
lradius 36.7797
lwrist -0.755726
lhand -4.19438 -19.6972
lfingers 7.12502
lthumb 21.5673 9.12192
rfemur 10.1504 1.34519 17.1822
rtibia 3.18055e-015
rfoot -19.7528 -13.251
rtoes -3.34507
lfemur -3.87099 -4.7252 -11.1869
ltibia 23.4085
lfoot -21.0361 8.54744
ltoes -55.8491
84
root -0.714984 18.6302 5.98429 -0.430128 0.237193 -2.75517
lowerback 8.48656 0.175048 1.94735
upperback -1.80408 0.467287 0.31238
thorax -6.64716 0.15923 -0.834179
lowerneck -14.7513 -0.809347 0.334188
upperneck 23.4577 -1.78521 2.17727
head 9.90391 -0.544141 0.477126
rclavicle -1.49554e-015 7.7526e-015
rhumerus -45.8656 -2.87894 -87.7621
rradius 39.2144
rwrist 11.6423
rhand -4.24752 -37.0521
rfingers 7.12502
rthumb 21.5163 -65.877
lclavicle -1.49554e-015 7.7526e-015
lhumerus -42.0842 5.8412 88.0185
lradius 36.7886
lwrist -0.675175
lhand -4.16708 -19.6897
lfingers 7.12502
lthumb 21.5935 9.1264
rfemur 10.1226 1.32848 17.1899
rtibia -1.59028e-014
rfoot -19.7636 -13.2589
rtoes -3.41553
lfemur -3.91339 -4.71756 -11.1702
ltibia 23.415
lfoot -21.0302 8.51076
ltoes -55.7963
85
root -0.716071 18.63 5.98367 -0.429514 0.251504 -2.76658
lowerback 8.48445 0.175818 1.97173
upperback -1.79038 0.471535 0.3249
thorax -6.63127 0.160866 -0.835322
lowerneck -14.7994 -0.816336 0.297281
upperneck 23.4678 -1.78869 2.18661
head 9.9171 -0.547451 0.48605
rclavicle -4.70405e-015 3.97569e-016
rhumerus -45.8386 -2.88709 -87.7389
rradius 39.2144
rwrist 11.6181
rhand -4.2272 -37.0788
rfingers 7.12502
rthumb 21.5358 -65.9015
lclavicle -4.70405e-015 3.97569e-016
lhumerus -42.065 5.75522 88.0714
lradius 36.7984
lwrist -0.631685
lhand -4.17322 -19.6721
lfingers 7.12502
lthumb 21.5876 9.14461
rfemur 10.1252 1.31364 17.2055
rtibia -4.77083e-015
rfoot -19.7892 -13.2311
rtoes -3.2721
lfemur -3.92104 -4.73478 -11.1532
ltibia 23.4158
lfoot -21.0288 8.50658
ltoes -55.8146
86
root -0.716184 18.6293 5.98355 -0.453456 0.267809 -2.75263
lowerback 8.5075 0.163822 1.96252
upperback -1.77715 0.455408 0.33302
thorax -6.63102 0.153567 -0.81948
lowerneck -14.8923 -0.801616 0.256878
upperneck 23.5622 -1.77356 2.23485
head 9.96931 -0.536692 0.511693
rclavicle 8.96628e-015 6.95746e-015
rhumerus -45.8177 -2.86158 -87.7352
rradius 39.1933
rwrist 11.6372
rhand -4.26061 -37.0591
rfingers 7.12502
rthumb 21.5037 -65.8855
lclavicle 8.96628e-015 6.95746e-015
lhumerus -42.0364 5.79542 88.0679
lradius 36.755
lwrist -0.701989
lhand -4.22083 -19.7108
lfingers 7.12502
lthumb 21.5419 9.11116
rfemur 10.1572 1.29869 17.191
rtibia -4.77083e-015
rfoot -19.8118 -13.2032
rtoes -3.20625
lfemur -3.89553 -4.7738 -11.1768
ltibia 23.415
lfoot -21.0529 8.52284
ltoes -55.8391
87
root -0.714844 18.6294 5.98323 -0.451057 0.283686 -2.71314
lowerback 8.50326 0.149553 1.93852
upperback -1.76932 0.433367 0.330901
thorax -6.62102 0.143793 -0.805061
lowerneck -14.9205 -0.795163 0.278647
upperneck 23.574 -1.76044 2.1944
head 9.97809 -0.533071 0.495469
rclavicle 2.77056e-015 7.35503e-015
rhumerus -45.7978 -2.80614 -87.7466
rradius 39.207
rwrist 11.6334
rhand -4.30222 -37.0661
rfingers 7.12502
rthumb 21.4637 -65.897
lclavicle 2.77056e-015 7.35503e-015
lhumerus -42.0095 5.84085 88.0822
lradius 36.7189
lwrist -0.588411
lhand -4.29809 -19.7259
lfingers 7.12502
lthumb 21.4677 9.10462
rfemur 10.1572 1.28377 17.1435
rtibia 4.77083e-015
rfoot -19.7946 -13.2333
rtoes -3.4158
lfemur -3.89816 -4.77438 -11.2286
ltibia 23.4141
lfoot -21.0418 8.53425
ltoes -55.9132
88
root -0.713976 18.6297 5.98286 -0.430068 0.283102 -2.7053
lowerback 8.49249 0.144218 1.94465
upperback -1.77296 0.426832 0.33287
thorax -6.61889 0.140386 -0.805478
lowerneck -14.9334 -0.79468 0.259671
upperneck 23.5759 -1.76176 2.22031
head 9.98169 -0.532256 0.507554
rclavicle 6.67792e-016 -4.17448e-015
rhumerus -45.7956 -2.80344 -87.7338
rradius 39.2125
rwrist 11.6577
rhand -4.33597 -37.0043
rfingers 7.12502
rthumb 21.4313 -65.8389
lclavicle 6.67792e-016 -4.17448e-015
lhumerus -42.0136 5.83271 88.135
lradius 36.7254
lwrist -0.250264
lhand -4.43156 -19.6796
lfingers 7.12502
lthumb 21.3395 9.1654
rfemur 10.1341 1.28388 17.13
rtibia -7.95139e-015
rfoot -19.7892 -13.2309
rtoes -3.42122
lfemur -3.92065 -4.74804 -11.2364
ltibia 23.407
lfoot -21.0122 8.52879
ltoes -55.9644
89
root -0.714036 18.629 5.9825 -0.425002 0.269818 -2.71112
lowerback 8.50875 0.148257 1.9573
upperback -1.77774 0.434288 0.336008
thorax -6.63302 0.143446 -0.810457
lowerneck -14.9061 -0.794359 0.235829
upperneck 23.5502 -1.76625 2.26748
head 9.96807 -0.531458 0.527546
rclavicle -1.88535e-015 2.98177e-015
rhumerus -45.8122 -2.83633 -87.7103
rradius 39.207
rwrist 11.6999
rhand -4.39252 -36.8097
rfingers 7.12502
rthumb 21.377 -65.6505
lclavicle -1.88535e-015 2.98177e-015
lhumerus -42.0063 5.88183 88.1385
lradius 36.7092
lwrist -0.131949
lhand -4.48507 -19.6962
lfingers 7.12502
lthumb 21.2881 9.15462
rfemur 10.1279 1.29701 17.1341
rtibia -1.59028e-014
rfoot -19.809 -13.1839
rtoes -3.09333
lfemur -3.92893 -4.73559 -11.2259
ltibia 23.4013
lfoot -21.0036 8.52011
ltoes -55.964
90
root -0.714188 18.6287 5.98267 -0.436386 0.272124 -2.69983
lowerback 8.53056 0.150493 1.95696
upperback -1.77064 0.437562 0.334317
thorax -6.63787 0.145024 -0.81261
lowerneck -14.8204 -0.797804 0.31169
upperneck 23.4315 -1.75753 2.15464
head 9.90728 -0.535732 0.476254
rclavicle -1.44197e-015 -7.15625e-015
rhumerus -45.8387 -2.87159 -87.6862
rradius 39.2348
rwrist 11.7191
rhand -4.37866 -36.6924
rfingers 7.12502
rthumb 21.3903 -65.5316
lclavicle -1.44197e-015 -7.15625e-015
lhumerus -41.9798 5.98239 88.0818
lradius 36.6851
lwrist -0.390177
lhand -4.33581 -19.7693
lfingers 7.12502
lthumb 21.4315 9.06527
rfemur 10.1392 1.29565 17.1201
rtibia -6.36111e-015
rfoot -19.8008 -13.1829
rtoes -2.97831
lfemur -3.91931 -4.74227 -11.2386
ltibia 23.4031
lfoot -20.9955 8.53083
ltoes -56.0136
91
root -0.71437 18.6294 5.98307 -0.429985 0.284514 -2.70877
lowerback 8.53687 0.151009 1.99355
upperback -1.77322 0.442506 0.334891
thorax -6.64389 0.145948 -0.833327
lowerneck -14.8019 -0.807901 0.352844
upperneck 23.3908 -1.76004 2.07266
head 9.88798 -0.543307 0.440277
rclavicle 3.94075e-015 -5.76476e-015
rhumerus -45.8783 -2.95182 -87.647
rradius 39.2614
rwrist 11.75
rhand -4.29636 -36.7535
rfingers 7.12502
rthumb 21.4693 -65.5838
lclavicle 3.94075e-015 -5.76476e-015
lhumerus -41.9753 6.05125 88.0263
lradius 36.6823
lwrist -0.783445
lhand -4.16137 -19.7651
lfingers 7.12502
lthumb 21.599 9.05039
rfemur 10.1316 1.28261 17.1319
rtibia -1.27222e-014
rfoot -19.7747 -13.2236
rtoes -3.26078
lfemur -3.92396 -4.75263 -11.229
ltibia 23.4015
lfoot -20.9971 8.54704
ltoes -56.0146
92
root -0.715346 18.6294 5.98334 -0.412629 0.286913 -2.73992
lowerback 8.53919 0.155287 2.04878
upperback -1.78776 0.454763 0.337729
thorax -6.66001 0.149591 -0.863198
lowerneck -14.8134 -0.815806 0.322969
upperneck 23.4223 -1.77471 2.11307
head 9.90227 -0.547613 0.45761
rclavicle 2.6471e-015 -3.97569e-016
rhumerus -45.9161 -3.01769 -87.6228
rradius 39.2769
rwrist 11.7329
rhand -4.31184 -36.7738
rfingers 7.12502
rthumb 21.4545 -65.6058
lclavicle 2.6471e-015 -3.97569e-016
lhumerus -41.9912 6.02754 88.0214
lradius 36.6851
lwrist -0.927931
lhand -4.14808 -19.6983
lfingers 7.12502
lthumb 21.6118 9.11572
rfemur 10.1159 1.27809 17.1732
rtibia 1.43125e-014
rfoot -19.7804 -13.2168
rtoes -3.41584
lfemur -3.93859 -4.76521 -11.1883
ltibia 23.3922
lfoot -21.0319 8.52951
ltoes -55.9253
93
root -0.716634 18.6287 5.9842 -0.408789 0.289559 -2.73038
lowerback 8.53686 0.160615 2.04109
upperback -1.7965 0.460832 0.333486
thorax -6.66777 0.152645 -0.864181
lowerneck -14.7628 -0.811281 0.297806
upperneck 23.411 -1.77254 2.15866
head 9.88929 -0.544036 0.478223
rclavicle -1.82478e-015 -3.37934e-015
rhumerus -45.9556 -3.02906 -87.615
rradius 39.3029
rwrist 11.686
rhand -4.34991 -36.7756
rfingers 7.12502
rthumb 21.4179 -65.6117
lclavicle -1.82478e-015 -3.37934e-015
lhumerus -42.0138 5.96034 88.0495
lradius 36.705
lwrist -0.845915
lhand -4.17874 -19.6604
lfingers 7.12502
lthumb 21.5823 9.15696
rfemur 10.1191 1.27499 17.1667
rtibia 1.27222e-014
rfoot -19.8211 -13.1613
rtoes -3.27185
lfemur -3.94043 -4.78268 -11.1909
ltibia 23.3885
lfoot -21.0494 8.49302
ltoes -55.8902
94
root -0.716461 18.6283 5.98555 -0.411786 0.312048 -2.68826
lowerback 8.52798 0.156527 2.0101
upperback -1.79567 0.450944 0.321491
thorax -6.66217 0.148825 -0.857869
lowerneck -14.7315 -0.799754 0.252211
upperneck 23.4306 -1.76286 2.22978
head 9.89139 -0.53537 0.51219
rclavicle 1.96688e-015 1.19271e-015
rhumerus -45.9782 -3.05086 -87.6032
rradius 39.3107
rwrist 11.6867
rhand -4.33992 -36.9116
rfingers 7.12502
rthumb 21.4275 -65.7467
lclavicle 1.96688e-015 1.19271e-015
lhumerus -42.033 5.91821 88.0765
lradius 36.7407
lwrist -0.78374
lhand -4.20816 -19.6456
lfingers 7.12502
lthumb 21.5541 9.17498
rfemur 10.1304 1.25374 17.1162
rtibia 2.06736e-014
rfoot -19.854 -13.1314
rtoes -3.18986
lfemur -3.93891 -4.79956 -11.2388
ltibia 23.3884
lfoot -21.0339 8.48525
ltoes -55.9094
